solid OpenSCAD_Model
  facet normal -1 0 0
    outer loop
      vertex -0.45 -2.925 -4.4
      vertex -0.45 -2.025 -3.5
      vertex -0.45 -2.025 -4.4
    endloop
  endfacet
  facet normal -1 -0 0
    outer loop
      vertex -0.45 -2.025 -3.5
      vertex -0.45 -2.925 -4.4
      vertex -0.45 -2.925 -3.5
    endloop
  endfacet
  facet normal -1 0 0
    outer loop
      vertex -0.45 1.125 -4.5
      vertex -0.45 2.025 -4.4
      vertex -0.45 2.025 -5.4
    endloop
  endfacet
  facet normal -1 -0 0
    outer loop
      vertex -0.45 2.025 -4.4
      vertex -0.45 1.125 -4.5
      vertex -0.45 2.025 -3.5
    endloop
  endfacet
  facet normal -1 0 0
    outer loop
      vertex -0.45 1.125 5.4
      vertex -0.45 2.025 -3.5
      vertex -0.45 1.125 -4.5
    endloop
  endfacet
  facet normal -1 0 0
    outer loop
      vertex -0.45 2.025 -5.4
      vertex -0.45 -1.125 -4.5
      vertex -0.45 1.125 -4.5
    endloop
  endfacet
  facet normal -1 0 0
    outer loop
      vertex -0.45 -2.025 -5.4
      vertex -0.45 -1.125 -4.5
      vertex -0.45 2.025 -5.4
    endloop
  endfacet
  facet normal -1 0 0
    outer loop
      vertex -0.45 -2.025 -4.4
      vertex -0.45 -1.125 -4.5
      vertex -0.45 -2.025 -5.4
    endloop
  endfacet
  facet normal -1 0 0
    outer loop
      vertex -0.45 -2.025 -3.5
      vertex -0.45 -1.125 -4.5
      vertex -0.45 -2.025 -4.4
    endloop
  endfacet
  facet normal -1 0 0
    outer loop
      vertex -0.45 -1.125 -4.5
      vertex -0.45 -2.025 -3.5
      vertex -0.45 -1.125 5.4
    endloop
  endfacet
  facet normal -1 -0 0
    outer loop
      vertex -0.45 -1.125 5.4
      vertex -0.45 -2.025 -3.5
      vertex -0.45 -2.025 5.4
    endloop
  endfacet
  facet normal -1 0 0
    outer loop
      vertex -0.45 2.025 -4.4
      vertex -0.45 2.925 -3.5
      vertex -0.45 2.925 -4.4
    endloop
  endfacet
  facet normal -1 -0 0
    outer loop
      vertex -0.45 2.925 -3.5
      vertex -0.45 2.025 -4.4
      vertex -0.45 2.025 -3.5
    endloop
  endfacet
  facet normal -1 0 0
    outer loop
      vertex -0.45 2.025 -3.5
      vertex -0.45 1.125 5.4
      vertex -0.45 2.025 5.4
    endloop
  endfacet
  facet normal -0 0 1
    outer loop
      vertex -0.45 -1.125 5.4
      vertex 0.45 -2.025 5.4
      vertex 0.45 -1.125 5.4
    endloop
  endfacet
  facet normal 0 0 1
    outer loop
      vertex 0.45 -2.025 5.4
      vertex -0.45 -1.125 5.4
      vertex -0.45 -2.025 5.4
    endloop
  endfacet
  facet normal -0 0 1
    outer loop
      vertex -0.45 2.025 5.4
      vertex 0.45 1.125 5.4
      vertex 0.45 2.025 5.4
    endloop
  endfacet
  facet normal 0 0 1
    outer loop
      vertex 0.45 1.125 5.4
      vertex -0.45 2.025 5.4
      vertex -0.45 1.125 5.4
    endloop
  endfacet
  facet normal 1 0 0
    outer loop
      vertex 0.45 -2.025 -3.5
      vertex 0.45 -1.125 5.4
      vertex 0.45 -2.025 5.4
    endloop
  endfacet
  facet normal 1 -0 0
    outer loop
      vertex 0.45 1.125 5.4
      vertex 0.45 2.025 -3.5
      vertex 0.45 2.025 5.4
    endloop
  endfacet
  facet normal 1 0 0
    outer loop
      vertex 0.45 1.125 -4.5
      vertex 0.45 2.025 -3.5
      vertex 0.45 1.125 5.4
    endloop
  endfacet
  facet normal 1 0 0
    outer loop
      vertex 0.45 2.025 -3.5
      vertex 0.45 1.125 -4.5
      vertex 0.45 2.025 -4.4
    endloop
  endfacet
  facet normal 1 0 0
    outer loop
      vertex 0.45 2.025 -4.4
      vertex 0.45 1.125 -4.5
      vertex 0.45 2.025 -5.4
    endloop
  endfacet
  facet normal 1 -0 0
    outer loop
      vertex 0.45 -1.125 -4.5
      vertex 0.45 2.025 -5.4
      vertex 0.45 1.125 -4.5
    endloop
  endfacet
  facet normal 1 0 0
    outer loop
      vertex 0.45 -1.125 5.4
      vertex 0.45 -2.025 -3.5
      vertex 0.45 -1.125 -4.5
    endloop
  endfacet
  facet normal 1 -0 0
    outer loop
      vertex 0.45 -2.025 -4.4
      vertex 0.45 -1.125 -4.5
      vertex 0.45 -2.025 -3.5
    endloop
  endfacet
  facet normal 1 0 0
    outer loop
      vertex 0.45 -2.025 -5.4
      vertex 0.45 -1.125 -4.5
      vertex 0.45 -2.025 -4.4
    endloop
  endfacet
  facet normal 1 0 0
    outer loop
      vertex 0.45 -1.125 -4.5
      vertex 0.45 -2.025 -5.4
      vertex 0.45 2.025 -5.4
    endloop
  endfacet
  facet normal 1 -0 0
    outer loop
      vertex 0.45 2.025 -3.5
      vertex 0.45 2.925 -4.4
      vertex 0.45 2.925 -3.5
    endloop
  endfacet
  facet normal 1 0 0
    outer loop
      vertex 0.45 2.925 -4.4
      vertex 0.45 2.025 -3.5
      vertex 0.45 2.025 -4.4
    endloop
  endfacet
  facet normal 1 -0 0
    outer loop
      vertex 0.45 -2.925 -3.5
      vertex 0.45 -2.025 -4.4
      vertex 0.45 -2.025 -3.5
    endloop
  endfacet
  facet normal 1 0 0
    outer loop
      vertex 0.45 -2.025 -4.4
      vertex 0.45 -2.925 -3.5
      vertex 0.45 -2.925 -4.4
    endloop
  endfacet
  facet normal 0 1 -0
    outer loop
      vertex 0.45 2.025 -3.5
      vertex -0.45 2.025 5.4
      vertex 0.45 2.025 5.4
    endloop
  endfacet
  facet normal 0 1 0
    outer loop
      vertex -0.45 2.025 5.4
      vertex 0.45 2.025 -3.5
      vertex -0.45 2.025 -3.5
    endloop
  endfacet
  facet normal 0 1 -0
    outer loop
      vertex 0.45 2.025 -5.4
      vertex -0.45 2.025 -4.4
      vertex 0.45 2.025 -4.4
    endloop
  endfacet
  facet normal 0 1 0
    outer loop
      vertex -0.45 2.025 -4.4
      vertex 0.45 2.025 -5.4
      vertex -0.45 2.025 -5.4
    endloop
  endfacet
  facet normal 0 0 -1
    outer loop
      vertex -0.45 -2.025 -5.4
      vertex 0.45 2.025 -5.4
      vertex 0.45 -2.025 -5.4
    endloop
  endfacet
  facet normal -0 0 -1
    outer loop
      vertex 0.45 2.025 -5.4
      vertex -0.45 -2.025 -5.4
      vertex -0.45 2.025 -5.4
    endloop
  endfacet
  facet normal 0 -1 0
    outer loop
      vertex -0.45 -2.025 -3.5
      vertex 0.45 -2.025 5.4
      vertex -0.45 -2.025 5.4
    endloop
  endfacet
  facet normal 0 -1 -0
    outer loop
      vertex 0.45 -2.025 5.4
      vertex -0.45 -2.025 -3.5
      vertex 0.45 -2.025 -3.5
    endloop
  endfacet
  facet normal 0 -1 0
    outer loop
      vertex -0.45 -2.025 -5.4
      vertex 0.45 -2.025 -4.4
      vertex -0.45 -2.025 -4.4
    endloop
  endfacet
  facet normal 0 -1 -0
    outer loop
      vertex 0.45 -2.025 -4.4
      vertex -0.45 -2.025 -5.4
      vertex 0.45 -2.025 -5.4
    endloop
  endfacet
  facet normal -0 0 1
    outer loop
      vertex -0.45 -2.025 -3.5
      vertex 0.45 -2.925 -3.5
      vertex 0.45 -2.025 -3.5
    endloop
  endfacet
  facet normal 0 0 1
    outer loop
      vertex 0.45 -2.925 -3.5
      vertex -0.45 -2.025 -3.5
      vertex -0.45 -2.925 -3.5
    endloop
  endfacet
  facet normal -0 0 1
    outer loop
      vertex -0.45 2.925 -3.5
      vertex 0.45 2.025 -3.5
      vertex 0.45 2.925 -3.5
    endloop
  endfacet
  facet normal 0 0 1
    outer loop
      vertex 0.45 2.025 -3.5
      vertex -0.45 2.925 -3.5
      vertex -0.45 2.025 -3.5
    endloop
  endfacet
  facet normal 0 1 -0
    outer loop
      vertex 0.45 2.925 -4.4
      vertex -0.45 2.925 -3.5
      vertex 0.45 2.925 -3.5
    endloop
  endfacet
  facet normal 0 1 0
    outer loop
      vertex -0.45 2.925 -3.5
      vertex 0.45 2.925 -4.4
      vertex -0.45 2.925 -4.4
    endloop
  endfacet
  facet normal 0 0 -1
    outer loop
      vertex -0.45 2.025 -4.4
      vertex 0.45 2.925 -4.4
      vertex 0.45 2.025 -4.4
    endloop
  endfacet
  facet normal -0 0 -1
    outer loop
      vertex 0.45 2.925 -4.4
      vertex -0.45 2.025 -4.4
      vertex -0.45 2.925 -4.4
    endloop
  endfacet
  facet normal 0 0 -1
    outer loop
      vertex -0.45 -2.925 -4.4
      vertex 0.45 -2.025 -4.4
      vertex 0.45 -2.925 -4.4
    endloop
  endfacet
  facet normal -0 0 -1
    outer loop
      vertex 0.45 -2.025 -4.4
      vertex -0.45 -2.925 -4.4
      vertex -0.45 -2.025 -4.4
    endloop
  endfacet
  facet normal 0 -1 0
    outer loop
      vertex -0.45 -2.925 -4.4
      vertex 0.45 -2.925 -3.5
      vertex -0.45 -2.925 -3.5
    endloop
  endfacet
  facet normal 0 -1 -0
    outer loop
      vertex 0.45 -2.925 -3.5
      vertex -0.45 -2.925 -4.4
      vertex 0.45 -2.925 -4.4
    endloop
  endfacet
  facet normal -0 0 1
    outer loop
      vertex -0.45 1.125 -4.5
      vertex 0.45 -1.125 -4.5
      vertex 0.45 1.125 -4.5
    endloop
  endfacet
  facet normal 0 0 1
    outer loop
      vertex 0.45 -1.125 -4.5
      vertex -0.45 1.125 -4.5
      vertex -0.45 -1.125 -4.5
    endloop
  endfacet
  facet normal 0 1 -0
    outer loop
      vertex 0.45 -1.125 -4.5
      vertex -0.45 -1.125 5.4
      vertex 0.45 -1.125 5.4
    endloop
  endfacet
  facet normal 0 1 0
    outer loop
      vertex -0.45 -1.125 5.4
      vertex 0.45 -1.125 -4.5
      vertex -0.45 -1.125 -4.5
    endloop
  endfacet
  facet normal 0 -1 0
    outer loop
      vertex -0.45 1.125 -4.5
      vertex 0.45 1.125 5.4
      vertex -0.45 1.125 5.4
    endloop
  endfacet
  facet normal 0 -1 -0
    outer loop
      vertex 0.45 1.125 5.4
      vertex -0.45 1.125 -4.5
      vertex 0.45 1.125 -4.5
    endloop
  endfacet
endsolid OpenSCAD_Model
